<svg width="160" height="40" viewBox="0 0 160 40" fill="none" xmlns="http://www.w3.org/2000/svg">
<path d="M11.32 15.48L18.76 1.44002H22.64L13.12 18.92V30H9.52V19.08L0 1.44002H3.92L11.32 15.48ZM42.7041 19.24C42.7041 21.0267 42.4641 22.6133 41.9841 24C41.5307 25.36 40.8641 26.52 39.9841 27.48C39.1307 28.44 38.0774 29.1733 36.8241 29.68C35.5974 30.16 34.2241 30.4 32.7041 30.4C31.2907 30.4 29.9841 30.16 28.7841 29.68C27.5841 29.1733 26.5441 28.44 25.6641 27.48C24.7841 26.52 24.0907 25.36 23.5841 24C23.1041 22.6133 22.8641 21.0267 22.8641 19.24C22.8641 16.8667 23.2641 14.8667 24.0641 13.24C24.8641 11.5867 26.0107 10.3333 27.5041 9.48002C28.9974 8.60002 30.7707 8.16002 32.8241 8.16002C34.7707 8.16002 36.4774 8.60002 37.9441 9.48002C39.4374 10.3333 40.5974 11.5867 41.4241 13.24C42.2774 14.8667 42.7041 16.8667 42.7041 19.24ZM26.5041 19.24C26.5041 20.92 26.7174 22.3867 27.1441 23.64C27.5974 24.8667 28.2907 25.8133 29.2241 26.48C30.1574 27.1467 31.3441 27.48 32.7841 27.48C34.2241 27.48 35.4107 27.1467 36.3441 26.48C37.2774 25.8133 37.9574 24.8667 38.3841 23.64C38.8374 22.3867 39.0641 20.92 39.0641 19.24C39.0641 17.5333 38.8374 16.08 38.3841 14.88C37.9307 13.68 37.2374 12.76 36.3041 12.12C35.3974 11.4533 34.2107 11.12 32.7441 11.12C30.5574 11.12 28.9707 11.84 27.9841 13.28C26.9974 14.72 26.5041 16.7067 26.5041 19.24ZM66.2028 8.56002V30H63.3228L62.8028 27.16H62.6428C62.1895 27.9067 61.6028 28.52 60.8828 29C60.1628 29.48 59.3761 29.8267 58.5228 30.04C57.6695 30.28 56.7761 30.4 55.8428 30.4C54.1361 30.4 52.6961 30.1333 51.5228 29.6C50.3761 29.04 49.5095 28.1867 48.9228 27.04C48.3361 25.8933 48.0428 24.4133 48.0428 22.6V8.56002H51.6028V22.36C51.6028 24.0667 51.9895 25.3467 52.7628 26.2C53.5361 27.0533 54.7361 27.48 56.3628 27.48C57.9628 27.48 59.2161 27.1867 60.1228 26.6C61.0561 25.9867 61.7095 25.1067 62.0828 23.96C62.4828 22.7867 62.6828 21.3733 62.6828 19.72V8.56002H66.2028ZM71.2094 17.72H80.8894V20.84H71.2094V17.72ZM100.18 30.44C100.18 29.96 100.193 29.4 100.22 28.76C100.247 28.12 100.3 27.5733 100.38 27.12H100.14C99.5267 28.0267 98.6733 28.8 97.58 29.44C96.5133 30.08 95.1267 30.4 93.42 30.4C90.8333 30.4 88.7267 29.48 87.1 27.64C85.5 25.7733 84.7 23 84.7 19.32C84.7 16.8667 85.0733 14.8133 85.82 13.16C86.5667 11.5067 87.6067 10.2667 88.94 9.44002C90.2733 8.58669 91.8067 8.16002 93.54 8.16002C95.22 8.16002 96.5933 8.48002 97.66 9.12002C98.7267 9.76002 99.58 10.5467 100.22 11.48H100.38L100.9 8.56002H103.7V39.6H100.18V30.44ZM94.1 27.48C95.5667 27.48 96.74 27.2133 97.62 26.68C98.5267 26.1467 99.18 25.3333 99.58 24.24C99.98 23.12 100.193 21.7333 100.22 20.08V19.36C100.22 16.64 99.7667 14.5867 98.86 13.2C97.9533 11.7867 96.34 11.08 94.02 11.08C92.1 11.08 90.6733 11.84 89.74 13.36C88.8067 14.8533 88.34 16.8667 88.34 19.4C88.34 21.9333 88.8067 23.92 89.74 25.36C90.7 26.7733 92.1533 27.48 94.1 27.48ZM128.429 8.56002V30H125.549L125.029 27.16H124.869C124.416 27.9067 123.829 28.52 123.109 29C122.389 29.48 121.603 29.8267 120.749 30.04C119.896 30.28 119.003 30.4 118.069 30.4C116.363 30.4 114.923 30.1333 113.749 29.6C112.603 29.04 111.736 28.1867 111.149 27.04C110.563 25.8933 110.269 24.4133 110.269 22.6V8.56002H113.829V22.36C113.829 24.0667 114.216 25.3467 114.989 26.2C115.763 27.0533 116.963 27.48 118.589 27.48C120.189 27.48 121.443 27.1867 122.349 26.6C123.283 25.9867 123.936 25.1067 124.309 23.96C124.709 22.7867 124.909 21.3733 124.909 19.72V8.56002H128.429ZM138.756 8.56002V30H135.236V8.56002H138.756ZM137.036 0.52002C137.569 0.52002 138.036 0.706687 138.436 1.08002C138.863 1.42668 139.076 1.98668 139.076 2.76002C139.076 3.50668 138.863 4.06668 138.436 4.44002C138.036 4.81335 137.569 5.00002 137.036 5.00002C136.449 5.00002 135.956 4.81335 135.556 4.44002C135.156 4.06668 134.956 3.50668 134.956 2.76002C134.956 1.98668 135.156 1.42668 135.556 1.08002C135.956 0.706687 136.449 0.52002 137.036 0.52002ZM159.388 30H143.708V27.68L155.228 11.28H144.388V8.56002H159.108V11.2L147.748 27.28H159.388V30Z" fill="#41b2ad"/>
</svg>
